<svg width="99" height="12" viewBox="0 0 99 12" fill="none" xmlns="http://www.w3.org/2000/svg"><path fill-rule="evenodd" clip-rule="evenodd" d="M94.6383 7.00607C94.6383 6.52902 94.6112 5.94601 94.2875 5.94601C93.8008 5.94601 93.3417 6.71428 93.3417 7.00607V11.4854H90.2887V7.00607C90.2887 6.29049 90.2081 5.94601 89.9109 5.94601C89.37 5.94601 88.9109 6.71428 88.9109 7.00607V11.4854H85.9127V6.95281C85.9127 6.18454 85.8856 5.07122 85.1558 4.72617C85.4259 4.38228 86.2364 3.95791 86.9933 3.95791C87.8844 3.95791 88.5595 4.48822 88.9109 5.38965C89.4783 4.54091 90.0998 3.93127 91.2075 3.93127C92.261 3.93127 92.8284 4.56754 93.1527 5.49559C93.8278 4.56754 94.5571 3.93127 95.5841 3.93127C97.3134 3.93127 97.6642 5.30975 97.6642 7.19133V8.88765C97.6642 9.63044 97.7183 10.3721 98.5017 10.929C97.9343 11.6707 97.2051 11.8304 96.5835 11.8304C95.962 11.8304 94.6383 11.5653 94.6383 9.94828V7.00607ZM33.6351 5.73412V4.32901H34.3644C34.3644 3.64006 34.581 1.91711 37.4715 1.91711V4.32901H39.255C41.7941 4.32901 42.8754 4.51428 42.8754 6.71428V11.4854H39.8489V7.50975C39.8489 6.07802 39.255 5.73412 38.066 5.73412H37.4715V9.02023C37.4715 10.1868 37.85 10.929 39.1196 10.929C38.5522 11.5653 37.6605 11.8304 37.0124 11.8304C35.7429 11.8304 34.392 11.2208 34.392 8.70181V5.73412H33.6351ZM9.40149 8.30523C9.07776 10.584 7.07833 11.8304 5.2137 11.8304C2.32315 11.8304 0 9.63044 0 6.2905C0 3.18965 2.13421 0.830444 5.51152 0.830444C7.07833 0.830444 9.10425 1.59929 9.10425 3.45423C9.10425 4.48823 8.29377 5.17718 7.45679 5.17718C5.37615 5.17718 6.2137 2.95055 5.10599 2.95055C4.4303 2.95055 3.34965 3.79871 3.34965 6.2905C3.34965 8.54318 4.70103 9.76244 6.2137 9.76244C7.48329 9.76244 8.40207 9.20608 9.40149 8.30523ZM29.9613 4.32902H32.9601V8.88765C32.9601 9.63044 33.0143 10.3721 33.7971 10.929C33.2303 11.6707 32.5005 11.8304 31.8795 11.8304C31.258 11.8304 30.2856 11.5913 29.9342 10.6106C29.232 11.6446 28.3674 11.8304 27.6105 11.8304C25.8006 11.8304 24.8547 10.0542 24.8547 7.85423C24.8547 5.73413 25.8277 3.95792 27.6381 3.95792C28.5563 3.95792 29.2585 4.24971 29.9613 5.0446V4.32902ZM29.9613 6.47575C29.7989 6.10465 29.2585 5.7868 28.9077 5.7868C28.0431 5.7868 27.7729 7.11201 27.7729 8.01343C27.7729 8.99417 28.0702 9.94827 28.9613 9.94827C29.4481 9.94827 29.7453 9.68312 29.9342 9.33864L29.9613 6.47575ZM46.5493 4.32902V8.80834C46.5493 9.39192 46.6034 10.0809 47.1432 10.0809C48.2785 10.0809 48.5752 8.2786 48.5752 7.40381C48.5752 6.31713 48.1432 5.1245 47.3327 4.80608C47.3327 4.32902 47.9542 3.56018 48.9536 3.56018C50.6288 3.56018 51.358 5.07123 51.358 6.68823C51.358 9.86897 49.4398 11.8304 47.1161 11.8304C45.1172 11.8304 43.5769 10.8491 43.5769 8.83497V4.32902H46.5493ZM19.6411 9.0735C19.7759 9.65708 20.5328 10.2928 21.7482 10.2928C22.6123 10.2928 23.4233 10.001 24.0172 9.63044C23.4504 11.1143 22.2615 11.8304 20.8024 11.8304C18.2362 11.8304 16.6152 10.2928 16.6152 7.85423C16.6152 5.70692 18.2362 3.95792 20.8836 3.95792C22.8289 3.95792 24.288 5.01797 24.288 6.60834C24.288 7.72165 23.4504 9.0735 21.1809 9.0735H19.6411ZM20.3973 7.80154C21.1536 7.80154 21.6398 7.2446 21.6398 6.58229C21.6398 5.97209 21.2078 5.68088 20.7487 5.68088C20.1813 5.68088 19.5327 6.23724 19.5327 7.80154H20.3973ZM13.1031 5.38965C13.7241 4.38228 14.3998 3.95792 15.0484 3.95792C15.8859 3.95792 16.5881 4.62023 16.5881 5.52223C16.5881 6.52902 15.8583 7.19133 15.129 7.19133C14.1296 7.19133 13.7782 6.42307 13.6163 6.02534L13.1567 6.47576V11.4854H10.1042V6.95281C10.1042 6.18455 10.0772 5.07123 9.3479 4.72618C9.61749 4.38228 10.4285 3.95792 11.1849 3.95792C12.076 3.95792 12.7517 4.48823 13.1031 5.38965ZM39.3362 2.23497C39.3362 2.95054 40.119 3.53354 41.0919 3.53354C42.0643 3.53354 42.8754 2.95054 42.8754 2.23497C42.8754 1.5194 42.0643 0.936401 41.0919 0.936401C40.119 0.936401 39.3362 1.5194 39.3362 2.23497ZM66.4334 5.73412V9.02023C66.4334 10.1868 66.8112 10.929 68.0814 10.929C67.514 11.5653 66.6223 11.8304 65.9737 11.8304C64.7041 11.8304 63.3533 11.2208 63.3533 8.70181V5.73412H62.5969V4.32901H63.3262C63.3262 3.64006 63.5422 1.91711 66.4334 1.91711V4.32901H67.8919V5.73412H66.4334ZM54.8972 9.0735C55.0326 9.65708 55.7889 10.2928 57.0043 10.2928C57.869 10.2928 58.6794 10.001 59.2739 9.63044C58.7065 11.1143 57.5182 11.8304 56.0591 11.8304C53.4923 11.8304 51.8713 10.2928 51.8713 7.85423C51.8713 5.70692 53.4923 3.95792 56.1403 3.95792C58.085 3.95792 59.5441 5.01797 59.5441 6.60834C59.5441 7.72165 58.7065 9.0735 56.4375 9.0735H54.8972ZM55.6541 7.80154C56.4104 7.80154 56.8965 7.2446 56.8965 6.58229C56.8965 5.97209 56.4639 5.68088 56.0049 5.68088C55.4375 5.68088 54.7889 6.23724 54.7889 7.80154H55.6541ZM71.3234 9.0735C71.4581 9.65708 72.2145 10.2928 73.4305 10.2928C74.2951 10.2928 75.1056 10.001 75.7001 9.63044C75.1327 11.1143 73.9437 11.8304 72.4852 11.8304C69.9184 11.8304 68.2969 10.2928 68.2969 7.85423C68.2969 5.70692 69.9184 3.95792 72.5659 3.95792C74.5111 3.95792 75.9702 5.01797 75.9702 6.60834C75.9702 7.72165 75.1327 9.0735 72.8631 9.0735H71.3234ZM72.0796 7.80154C72.8359 7.80154 73.322 7.2446 73.322 6.58229C73.322 5.97209 72.89 5.68088 72.431 5.68088C71.8636 5.68088 71.2151 6.23724 71.2151 7.80154H72.0796ZM81.4811 4.32902H84.4799V8.88765C84.4799 9.63044 84.5341 10.3721 85.3175 10.929C84.7507 11.6707 84.0209 11.8304 83.3993 11.8304C82.7783 11.8304 81.806 11.5913 81.454 10.6106C80.7524 11.6446 79.8878 11.8304 79.1309 11.8304C77.321 11.8304 76.3751 10.0542 76.3751 7.85423C76.3751 5.73413 77.348 3.95792 79.158 3.95792C80.0767 3.95792 80.7783 4.24971 81.4811 5.0446V4.32902ZM81.4811 6.47575C81.3192 6.10465 80.7784 5.7868 80.4281 5.7868C79.5636 5.7868 79.2928 7.11201 79.2928 8.01343C79.2928 8.99417 79.5901 9.94827 80.4817 9.94827C80.9684 9.94827 81.2651 9.68312 81.454 9.33864L81.4811 6.47575Z" fill="#A57C37"/></svg>